<svg xmlns="http://www.w3.org/2000/svg" width="14.969" height="14.969" viewBox="0 0 14.969 14.969">
  <defs>
    <style>
      .cls-1 {
        fill: #fff;
        fill-rule: evenodd;
      }
    </style>
  </defs>
  <path id="Forma_1" data-name="Forma 1" class="cls-1" d="M294.873,29.189a12.933,12.933,0,0,1-5.064-5.061l0.773-2.075L287.976,18l-0.858.859v0a0.209,0.209,0,0,1-.019.017c-2.166,2.164-1,6.6,2.714,10.307s8.148,4.875,10.314,2.711a0.144,0.144,0,0,0,.018-0.02L301,31.019l-4.053-2.6ZM299.8,25.8H301a7.809,7.809,0,0,0-7.8-7.8v1.2A6.608,6.608,0,0,1,299.8,25.8Zm-2.4,0h1.2a5.406,5.406,0,0,0-5.4-5.4v1.2A4.205,4.205,0,0,1,297.4,25.8Zm-2.4,0h1.2a3,3,0,0,0-3-3V24A1.8,1.8,0,0,1,295,25.8Z" transform="translate(-286.031 -18)"/>
</svg>
