<svg xmlns="http://www.w3.org/2000/svg" width="16" height="17" viewBox="0 0 16 17">
  <defs>
    <style>
      .cls-1 {
        fill: #fff;
        fill-rule: evenodd;
      }
    </style>
  </defs>
  <path id="Forma_1" data-name="Forma 1" class="cls-1" d="M1645.77,107.484l-3.95-4.208a6.972,6.972,0,0,0,1.57-4.412,6.7,6.7,0,1,0-6.7,6.864,6.52,6.52,0,0,0,3.84-1.241l3.98,4.239a0.852,0.852,0,0,0,1.23.025A0.913,0.913,0,0,0,1645.77,107.484Zm-9.08-13.694a5.075,5.075,0,1,1-4.94,5.073A5.018,5.018,0,0,1,1636.69,93.79Z" transform="translate(-1630 -92)"/>
</svg>
