<svg xmlns="http://www.w3.org/2000/svg" width="18" height="20" viewBox="0 0 18 20">
  <defs>
    <style>
      .cls-1 {
        fill: #fff;
        fill-rule: evenodd;
      }
    </style>
  </defs>
  <path id="Forma_1" data-name="Forma 1" class="cls-1" d="M1647,25.525v5.9a2.159,2.159,0,0,1-.24,1.012,2.558,2.558,0,0,1-.64.815,3.108,3.108,0,0,1-.93.55,3.3,3.3,0,0,1-1.15.2h-12.09a3.28,3.28,0,0,1-1.14-.2,3.108,3.108,0,0,1-.93-0.55,2.558,2.558,0,0,1-.64-0.815,2.159,2.159,0,0,1-.24-1.012v-5.9a2.192,2.192,0,0,1,.24-1,2.414,2.414,0,0,1,.64-0.819,3.29,3.29,0,0,1,.93-0.551,3.146,3.146,0,0,1,1.14-.208h12.09a3.146,3.146,0,0,1,1.14.208,3.21,3.21,0,0,1,.94.551,2.431,2.431,0,0,1,.64.819A2.192,2.192,0,0,1,1647,25.525Zm-14.24,6.554V25.861h1.48v-0.94h-4v0.913h1.28v6.245h1.24Zm0.61-14.467L1631.71,14h1.44l0.83,2.7,0.82-2.7h1.44l-1.55,3.612v4.206h-1.32V17.613Zm3.89,9.161h-1.24v3.32c0,0.241,0,.427.01,0.556a0.312,0.312,0,0,1-.05.249,0.468,0.468,0,0,1-.32.315c-0.17.065-.3-0.028-0.4-0.288a0.626,0.626,0,0,1-.01-0.261c0.01-.14.01-0.322,0.01-0.546l-0.02-3.344H1634l0.03,3.292c0,0.259-.01.474-0.02,0.65a1.49,1.49,0,0,0,.02.395c0.01,0.146.03,0.3,0.05,0.465a0.516,0.516,0,0,0,.26.4,0.919,0.919,0,0,0,.5.135,1.737,1.737,0,0,0,.57-0.1,2.169,2.169,0,0,0,.51-0.26,1.2,1.2,0,0,0,.34-0.357l-0.02.657,1.02,0.025v-5.3Zm-1.13-8.609a4.638,4.638,0,0,1,.13-1.221,1.252,1.252,0,0,1,.53-0.713,1.513,1.513,0,0,1,.93-0.269,1.918,1.918,0,0,1,.83.161,1.186,1.186,0,0,1,.56.471,1.908,1.908,0,0,1,.24.552,4.243,4.243,0,0,1,.08.9v1.408a5.588,5.588,0,0,1-.08,1.1,1.6,1.6,0,0,1-.27.685,1.2,1.2,0,0,1-.53.443,1.719,1.719,0,0,1-.76.16,2.289,2.289,0,0,1-.81-0.135,0.839,0.839,0,0,1-.5-0.387,1.765,1.765,0,0,1-.27-0.607,5.816,5.816,0,0,1-.08-1.1v-1.45Zm1.1,2.189a0.541,0.541,0,0,0,.17.384,0.5,0.5,0,0,0,.38.166,0.538,0.538,0,0,0,.39-0.161,0.526,0.526,0,0,0,.17-0.389V17.439a0.566,0.566,0,0,0-.17-0.409,0.523,0.523,0,0,0-.77,0,0.566,0.566,0,0,0-.17.409v2.915Zm4.03,10.208V27.808a1.215,1.215,0,0,0-.56-1.128,0.921,0.921,0,0,0-.44-0.107,1.858,1.858,0,0,0-1.02.415V24.921H1638v7.1l1.03-.027,0.08-.443a2.284,2.284,0,0,0,.89.511,0.89,0.89,0,0,0,.68-0.075,1.141,1.141,0,0,0,.43-0.551A2.4,2.4,0,0,0,1641.26,30.562Zm-1.49-3.3a0.606,0.606,0,0,1,.38.128,0.371,0.371,0,0,1,.17.288V30.79a0.355,0.355,0,0,1-.17.282,0.637,0.637,0,0,1-.38.122,0.646,0.646,0,0,1-.39-0.122,0.341,0.341,0,0,1-.16-0.282V27.674a0.355,0.355,0,0,1,.16-0.288A0.614,0.614,0,0,1,1639.77,27.258Zm0.57-5.99a0.9,0.9,0,0,1-.06-0.222,1.6,1.6,0,0,0-.04-0.222,1.747,1.747,0,0,1-.03-0.364V16.177h1.16v4.27a0.39,0.39,0,0,0,.12.283,0.439,0.439,0,0,0,.32.12,0.48,0.48,0,0,0,.33-0.12,0.363,0.363,0,0,0,.13-0.283v-4.27h1.08v5.481h-1.37l0.02-.443a1.912,1.912,0,0,1-.36.415,0.894,0.894,0,0,1-.47.135,0.945,0.945,0,0,1-.52-0.135A1.124,1.124,0,0,1,1640.34,21.268Zm4.83,8.946h-0.93v0.6a0.386,0.386,0,0,1-.16.335,0.552,0.552,0,0,1-.36.119h-0.2a0.507,0.507,0,0,1-.35-0.119,0.406,0.406,0,0,1-.15-0.335V29.54h2.15V28.8c0-.276-0.01-0.543-0.02-0.8a3.771,3.771,0,0,0-.06-0.6,0.924,0.924,0,0,0-.33-0.585,1.571,1.571,0,0,0-.65-0.3,2.086,2.086,0,0,0-.76-0.028,1.482,1.482,0,0,0-.66.254,1.4,1.4,0,0,0-.53.659,3.244,3.244,0,0,0-.16,1.156v1.652a1.83,1.83,0,0,0,.55,1.49,1.711,1.711,0,0,0,1.08.416h0.11a1.665,1.665,0,0,0,1.12-.537,1.293,1.293,0,0,0,.36-0.953A3.469,3.469,0,0,0,1645.17,30.213Zm-0.96-1.574h-1.18l0.02-.656a0.483,0.483,0,0,1,.16-0.358,0.592,0.592,0,0,1,.4-0.14h0.05a0.636,0.636,0,0,1,.41.134,0.447,0.447,0,0,1,.17.364Z" transform="translate(-1629 -14)"/>
</svg>
