<svg xmlns="http://www.w3.org/2000/svg" width="17" height="15" viewBox="0 0 17 15">
  <defs>
    <style>
      .cls-1 {
        fill: #eeebe3;
        fill-rule: evenodd;
      }
    </style>
  </defs>
  <path id="strelica_copy" data-name="strelica copy" class="cls-1" d="M1021.96,6951.08l-0.03.01h11.37l-3.57-3.81a0.974,0.974,0,0,1-.27-0.7,1.008,1.008,0,0,1,.27-0.7l0.56-.59a0.858,0.858,0,0,1,.65-0.29,0.9,0.9,0,0,1,.66.29l6.13,6.51a1.042,1.042,0,0,1,0,1.4l-6.13,6.51a0.9,0.9,0,0,1-.66.29,0.858,0.858,0,0,1-.65-0.29l-0.56-.59a0.974,0.974,0,0,1-.27-0.7,0.943,0.943,0,0,1,.27-0.68l3.62-3.83h-11.41a1,1,0,0,1-.94-1.01v-0.84A0.978,0.978,0,0,1,1021.96,6951.08Z" transform="translate(-1021 -6945)"/>
</svg>
